<?xml version="1.0" encoding="utf-8"?>
<svg version="1.1" xmlns:xlink="http://www.w3.org/1999/xlink" width="60px" height="60px" xmlns="http://www.w3.org/2000/svg">
  <g transform="matrix(1 0 0 1 -295 -513 )">
    <path d="M 325 513.5  C 341.52 513.5  354.5 526.48  354.5 543  C 354.5 559.52  341.52 572.5  325 572.5  C 308.48 572.5  295.5 559.52  295.5 543  C 295.5 526.48  308.48 513.5  325 513.5  Z " fill-rule="nonzero" fill="#a6aab4" stroke="none" fill-opacity="0.2" />
    <path d="M 325 513.5  C 341.52 513.5  354.5 526.48  354.5 543  C 354.5 559.52  341.52 572.5  325 572.5  C 308.48 572.5  295.5 559.52  295.5 543  C 295.5 526.48  308.48 513.5  325 513.5  Z " stroke-width="1" stroke="#797979" fill="none" stroke-opacity="0.0901960784313725" />
  </g>
</svg>