<?xml version="1.0" encoding="utf-8"?>
<svg version="1.1" xmlns:xlink="http://www.w3.org/1999/xlink" width="50px" height="50px" xmlns="http://www.w3.org/2000/svg">
  <g transform="matrix(1 0 0 1 -20 -240 )">
    <path d="M 45 240  C 59 240  70 251  70 265  C 70 279  59 290  45 290  C 31 290  20 279  20 265  C 20 251  31 240  45 240  Z " fill-rule="nonzero" fill="#ffffff" stroke="none" />
    <path d="M 45 240.5  C 58.72 240.5  69.5 251.28  69.5 265  C 69.5 278.72  58.72 289.5  45 289.5  C 31.28 289.5  20.5 278.72  20.5 265  C 20.5 251.28  31.28 240.5  45 240.5  Z " stroke-width="1" stroke="#797979" fill="none" />
  </g>
</svg>