<?xml version="1.0" encoding="utf-8"?>
<svg version="1.1" xmlns:xlink="http://www.w3.org/1999/xlink" width="68px" height="57px" xmlns="http://www.w3.org/2000/svg">
  <g transform="matrix(1 0 0 1 -38 -134 )">
    <path d="M 61.625 50.6846590909091  C 62.3878205128205 49.9289772727273  62.7692307692308 49.0113636363636  62 47.9318181818182  L 62 19.4318181818182  C 62.7692307692308 18.3522727272727  62.3878205128205 17.4346590909091  61.625 16.6789772727273  C 60.8621794871795 15.9232954545455  59.9358974358974 15.5454545454545  58.8461538461538 16  L 30.0769230769231 16  C 28.9871794871795 15.5454545454545  28.0608974358974 15.1676136363636  27.2980769230769 14.4119318181818  C 26.5352564102564 13.65625  26.1538461538462 12.7386363636364  26.1538461538462 11.6590909090909  L 26.1538461538462 9.06818181818182  C 26.1538461538462 7.98863636363636  25.7724358974359 7.07102272727272  25.0096153846154 6.31534090909091  C 24.2467948717949 5.55965909090909  23.3205128205128 5.18181818181818  22.2307692307692 6  L 9.15384615384615 6  C 8.06410256410256 5.18181818181818  7.13782051282051 5.55965909090909  6.375 6.31534090909091  C 5.61217948717949 7.07102272727272  5.23076923076923 7.98863636363636  6 9.06818181818182  L 6 47.9318181818182  C 5.23076923076923 49.0113636363636  5.61217948717949 49.9289772727273  6.375 50.6846590909091  C 7.13782051282051 51.4403409090909  8.06410256410256 51.8181818181818  9.15384615384615 51  L 58.8461538461538 51  C 59.9358974358974 51.8181818181818  60.8621794871795 51.4403409090909  61.625 50.6846590909091  Z M 65.3028846153846 13.0355113636364  C 67.1009615384615 14.8167613636364  68 16.9488636363636  68 19.4318181818182  L 68 47.9318181818182  C 68 50.4147727272727  67.1009615384615 52.546875  65.3028846153846 54.328125  C 63.5048076923077 56.109375  61.3525641025641 57  58.8461538461538 57  L 9.15384615384615 57  C 6.6474358974359 57  4.49519230769231 56.109375  2.69711538461538 54.328125  C 0.899038461538462 52.546875  0 50.4147727272727  0 47.9318181818182  L 0 9.06818181818182  C 0 6.58522727272726  0.899038461538462 4.453125  2.69711538461538 2.671875  C 4.49519230769231 0.890625  6.6474358974359 0  9.15384615384615 0  L 22.2307692307692 0  C 24.7371794871795 0  26.8894230769231 0.890625  28.6875 2.671875  C 30.4855769230769 4.453125  31.3846153846154 6.58522727272726  31.3846153846154 9.06818181818182  L 31.3846153846154 11  L 58.8461538461538 11  C 61.3525641025641 10.3636363636364  63.5048076923077 11.2542613636364  65.3028846153846 13.0355113636364  Z " fill-rule="nonzero" fill="#ce7b5b" stroke="none" transform="matrix(1 0 0 1 38 134 )" />
  </g>
</svg>