<?xml version="1.0" encoding="utf-8"?>
<svg version="1.1" xmlns:xlink="http://www.w3.org/1999/xlink" width="76px" height="76px" xmlns="http://www.w3.org/2000/svg">
  <defs>
    <filter x="288px" y="506px" width="76px" height="76px" filterUnits="userSpaceOnUse" id="filter17">
      <feOffset dx="1" dy="1" in="SourceAlpha" result="shadowOffsetInner" />
      <feGaussianBlur stdDeviation="4" in="shadowOffsetInner" result="shadowGaussian" />
      <feComposite in2="shadowGaussian" operator="atop" in="SourceAlpha" result="shadowComposite" />
      <feColorMatrix type="matrix" values="0 0 0 0 0  0 0 0 0 0  0 0 0 0 0  0 0 0 0.349019607843137 0  " in="shadowComposite" />
    </filter>
    <g id="widget18">
      <path d="M 325 513.5  C 341.52 513.5  354.5 526.48  354.5 543  C 354.5 559.52  341.52 572.5  325 572.5  C 308.48 572.5  295.5 559.52  295.5 543  C 295.5 526.48  308.48 513.5  325 513.5  Z " fill-rule="nonzero" fill="#ce7b5b" stroke="none" />
      <path d="M 325 513.5  C 341.52 513.5  354.5 526.48  354.5 543  C 354.5 559.52  341.52 572.5  325 572.5  C 308.48 572.5  295.5 559.52  295.5 543  C 295.5 526.48  308.48 513.5  325 513.5  Z " stroke-width="1" stroke="#797979" fill="none" stroke-opacity="0.0901960784313725" />
    </g>
  </defs>
  <g transform="matrix(1 0 0 1 -288 -506 )">
    <use xlink:href="#widget18" filter="url(#filter17)" />
    <use xlink:href="#widget18" />
  </g>
</svg>