<?xml version="1.0" encoding="utf-8"?>
<svg version="1.1" xmlns:xlink="http://www.w3.org/1999/xlink" width="60px" height="60px" xmlns="http://www.w3.org/2000/svg">
  <g transform="matrix(1 0 0 1 0 -131 )">
    <path d="M 30 131.5  C 46.52 131.5  59.5 144.48  59.5 161  C 59.5 177.52  46.52 190.5  30 190.5  C 13.48 190.5  0.5 177.52  0.5 161  C 0.5 144.48  13.48 131.5  30 131.5  Z " fill-rule="nonzero" fill="#eee9d0" stroke="none" />
    <path d="M 30 131.5  C 46.52 131.5  59.5 144.48  59.5 161  C 59.5 177.52  46.52 190.5  30 190.5  C 13.48 190.5  0.5 177.52  0.5 161  C 0.5 144.48  13.48 131.5  30 131.5  Z " stroke-width="1" stroke="#797979" fill="none" stroke-opacity="0.0901960784313725" />
  </g>
</svg>