<?xml version="1.0" encoding="utf-8"?>
<svg version="1.1" xmlns:xlink="http://www.w3.org/1999/xlink" width="62px" height="12px" viewBox="56 318  62 12" xmlns="http://www.w3.org/2000/svg">
  <g transform="matrix(-0.529919264233204 0.848048096156425 -0.848048096156426 -0.529919264233204 407.870559142971 421.913657245949 )">
    <path d="M 93.4315289130357 337.908316169465  C 94.8579395570048 339.356064373384  96.3530392121388 340.734490652703  97.9116638406628 342.038833956644  L 99.1952179218721 340.505051403408  C 97.6856882284755 339.241793456851  96.2376825427518 337.906786065905  94.8562022410531 336.504640313566  L 93.4315289130357 337.908316169465  Z M 88.1126296380963 331.769609751333  C 89.3425460705956 333.3876109121  90.649439276678 334.945626359455  92.0287952790573 336.438274746007  L 93.4976531499728 335.080903553205  C 92.1617453212047 333.63527192384  90.8960177915758 332.126332223086  89.7048423531304 330.5592962919  L 88.1126296380963 331.769609751333  Z M 83.6280718002405 324.998087263026  C 84.0012733756018 325.646584695703  84.383393339078 326.289908734184  84.7743228654012 326.927876163987  C 85.4533345334436 328.017426590672  86.165235010673 329.086132648578  86.9090424869149 330.132520442807  L 88.5391668530458 328.973773468293  C 87.8202438383362 327.9623931157  87.1320977199448 326.929484279544  86.4756737184281 325.876465737959  C 86.0957196430821 325.256276931704  85.7242999877104 324.630899789339  85.361519800936 324.000511186286  L 83.6280718002405 324.998087263026  Z M 79.9435797204145 317.788963843203  C 80.7744272442363 319.635773104462  81.6738636754917 321.450952943317  82.6400136917137 323.230718714835  L 84.3977240936889 322.276541507609  C 83.4552985114727 320.540479027385  82.5779483193085 318.769872094987  81.7675027899151 316.968412420961  L 79.9435797204145 317.788963843203  Z M 76.9930102339902 310.249661350644  C 77.6364023427362 312.169832866346  78.3511846595418 314.065340708809  79.1358668652576 315.932232749433  L 80.9796238425429 315.157274551391  C 80.2142100122271 313.336225243542  79.516979634167 311.487262813243  78.8893864317686 309.614242342036  L 76.9930102339902 310.249661350644  Z M 74.8055175244389 302.454674627487  C 75.2550969465148 304.429235439049  75.7781624801551 306.386342025  76.3736235351711 308.321913823532  L 78.2852091710425 307.733831893245  C 77.7043700445734 305.845789303042  77.1941487209683 303.936740725953  76.755609010273 302.010666522969  L 74.8055175244389 302.454674627487  Z M 73.3512379497638 294.514093972673  C 73.5538874136975 295.860666459978  73.7753169071439 297.204345652333  74.0154617644524 298.544739145419  C 74.1294029499693 299.189589961032  74.2511168988783 299.833043196695  74.3805770592986 300.474958483175  L 76.3411032311053 300.079563579742  C 76.2146649527171 299.452631993761  76.0958014895709 298.824196517506  75.9845388362652 298.194394585371  C 75.7475121579698 296.871532053021  75.5289670624806 295.545424587628  75.3289674490532 294.216459922805  L 73.3512379497638 294.514093972673  Z M 72.3722173567495 286.519807794175  C 72.5619295629504 288.524680246948  72.7929939915635 290.525424348217  73.0652630786351 292.520762369028  L 75.0468998025001 292.250362859729  C 74.7783506802772 290.282286792812  74.5504432444812 288.308878507767  74.3633230429254 286.331398276162  L 72.3722173567495 286.519807794175  Z M 71.8343599417988 278.483776296821  C 71.9135181208487 280.496048210794  72.0341929880122 282.506472371354  72.1963074770759 284.513764867606  L 74.1898165891271 284.35276356274  C 74.029917041933 282.372896352285  73.9108909343436 280.389940264906  73.8328142796293 278.405161669643  L 71.8343599417988 278.483776296821  Z M 71.7392939231128 270.430326397718  C 71.7076584449829 272.443906162613  71.7175784400964 274.457924365765  71.7690475732776 276.471094801025  L 73.7683942625598 276.419979088602  C 73.7176283431304 274.434314248393  73.7078438831726 272.447813223194  73.7390471313058 270.461744645947  L 71.7392939231128 270.430326397718  Z M 72.0873070874127 262.383837743482  C 71.9449737199773 264.392629789859  71.8441088129321 266.404145138907  71.7847767813175 268.417099182868  L 73.7839085651852 268.476023801916  C 73.8424299536439 266.490572396489  73.9419167611307 264.506540029337  74.0823054526965 262.525193756849  L 72.0873070874127 262.383837743482  Z M 72.7544034898653 254.385303913571  C 72.5594238510504 256.382976197386  72.3858626217969 258.382681062531  72.2337497122051 260.384073896486  L 74.2279980828546 260.535643801685  C 74.3790278860597 258.548501706649  74.5513532880799 256.563035561414  74.7449445917913 254.579587524674  L 72.7544034898653 254.385303913571  Z M 73.6484000686126 246.406924808061  C 73.3964075725396 248.398208664025  73.1657666469014 250.392136398762  72.9565170384345 252.388364395373  L 74.945619008889 252.596867035966  C 75.1533786742074 250.614853002517  75.3823773417331 248.635122852137  75.6325755477439 246.658017755024  L 73.6484000686126 246.406924808061  Z M 74.7700496633959 238.457354680025  C 74.461250176708 240.440623317935  74.1737179780449 242.42714497215  73.9075026183112 244.416577302072  L 75.8898331808781 244.681842340691  C 76.1541529779192 242.706575585993  76.4396378292412 240.7341987818  76.7462385367636 238.765051831096  L 74.7700496633959 238.457354680025  Z M 76.118435936467 230.543087974091  C 75.7530817345876 232.516721151829  75.4088931638959 234.494213825833  75.0859295389839 236.475225211484  L 77.0598692179092 236.797035938409  C 77.3805332091747 234.830130167401  77.7222710158882 232.866718053372  78.0850237458038 230.907137954407  L 76.118435936467 230.543087974091  Z M 77.6924573163136 222.670590293569  C 77.2708468773484 224.632975640755  76.8702831213563 226.599823811133  76.4908350781591 228.570795854469  L 78.454771252667 228.948889364674  C 78.8315174699607 226.991951451748  79.2292290475053 225.039108048095  79.6478374469934 223.090695690514  L 77.6924573163136 222.670590293569  Z M 94.993321733537 348.574177552442  L 105 346  L 103.255582709202 335.81584523313  L 94.993321733537 348.574177552442  Z M 85.8454148534729 225.520042558039  L 80 217  L 71.0290524326359 222.1266070401  L 85.8454148534729 225.520042558039  Z " fill-rule="nonzero" fill="#c9be78" stroke="none" />
  </g>
</svg>