<?xml version="1.0" encoding="utf-8"?>
<svg version="1.1" xmlns:xlink="http://www.w3.org/1999/xlink" width="82px" height="12px" viewBox="122 298  82 12" xmlns="http://www.w3.org/2000/svg">
  <g transform="matrix(-0.453990499739546 -0.891006524188366 0.891006524188368 -0.453990499739546 -33.8655318957179 587.247175363526 )">
    <path d="M 176.191791124915 222.667142312439  C 175.584033861459 220.73793061091  174.911372038893 218.82976916224  174.174953131666 216.945913044147  L 172.312218649408 217.674075284725  C 173.032262308167 219.516041370247  173.689966605376 221.381772325172  174.284209582195 223.26808545274  L 176.191791124915 222.667142312439  Z M 178.272533103204 230.482103396839  C 177.840522290723 228.506099009572  177.341978466556 226.545229789784  176.777752082268 224.602840727862  L 174.857140922609 225.160741053539  C 175.408820986937 227.059938525462  175.896279029747 228.977205224497  176.31868351039 230.909270540543  L 178.272533103204 230.482103396839  Z M 179.642892236297 238.452374394569  C 179.390120555789 236.445552738782  179.069725310947 234.447828801696  178.682253054801 232.462610443097  L 176.719292796925 232.845738393002  C 177.098149094944 234.78681279554  177.411419927729 236.740114698486  177.658570895579 238.702312020324  L 179.642892236297 238.452374394569  Z M 180.271204662323 246.51584093712  C 180.200734666415 244.495545032329  180.065571913663 242.478024618917  179.865924301761 240.46638290273  L 177.875701920182 240.663904729027  C 178.071131732988 242.633048062534  178.203439007877 244.607945898623  178.272420239245 246.585560590454  L 180.271204662323 246.51584093712  Z M 180.207862236889 254.598542590764  C 180.30998689731 252.579599273835  180.347417845278 250.557902829657  180.32009750718 248.53656288735  L 178.320280163173 248.563592326994  C 178.347023325835 250.542228999776  178.310383152257 252.521214642892  178.210415999739 254.497505321928  L 180.207862236889 254.598542590764  Z M 179.455270016354 262.646379768185  C 179.729244851549 260.643506993164  179.938996631272 258.63237254237  180.084202730313 256.616069799218  L 178.089368950933 256.472409809505  C 177.947230507685 258.446115700103  177.741909989916 260.414762484815  177.473723206986 262.375322131725  L 179.455270016354 262.646379768185  Z M 178.019470913002 270.59909362795  C 178.088460899144 270.290113034985  178.156349796708 269.980887617593  178.223136313003 269.671423263817  C 178.580589610963 268.005021818347  178.892977908474 266.329271487159  179.159959627405 264.646004604147  L 177.184651609874 264.332702456246  C 176.92337535147 265.979997540158  176.617673928523 267.619938611225  176.267881440893 269.250733384422  C 176.202182169979 269.555145769785  176.135399964163 269.859323424236  176.067536091667 270.163260571309  L 178.019470913002 270.59909362795  Z M 176.026230614437 278.407964002815  C 176.583443185027 276.471326155827  177.096662664902 274.522300221582  177.56549319657 272.562389526732  L 175.620370491861 272.097096432407  C 175.158574949234 274.027597885908  174.653056532263 275.947377908974  174.104205158444 277.854955732974  L 176.026230614437 278.407964002815  Z M 173.564677952473 286.082090787776  C 174.237919319715 284.182670333889  174.867996735921 282.268225564126  175.454424208498 280.340233131927  L 173.540978935592 279.75823039345  C 172.963351041037 281.657292530556  172.342728187659 283.543010293299  171.67958907554 285.413929186019  L 173.564677952473 286.082090787776  Z M 170.643812733321 293.593416222798  C 171.430621425668 291.738157728447  172.175253120545 289.865293620762  172.877133467121 287.976268481091  L 171.002361469299 287.279683987879  C 170.311013117149 289.140363552215  169.577554917721 290.985124587296  168.802552603486 292.812544188288  L 170.643812733321 293.593416222798  Z M 167.274314078879 300.914477774034  C 168.171813405588 299.110164342901  169.028276893833 297.285728369734  169.843043934451 295.442577082201  L 168.013799659692 294.633957651776  C 167.211258523348 296.449451719415  166.367646611199 298.246511303441  165.4836146197 300.023750292201  L 167.274314078879 300.914477774034  Z M 163.541008706076 308.034653450543  C 164.507182165694 306.272875702386  165.448774323925 304.49772847667  166.36551129932 302.709728111482  L 164.585801090031 301.797241634348  C 163.677535618075 303.568719210939  162.744644648324 305.327462423033  161.787399531302 307.072959703996  L 163.541008706076 308.034653450543  Z M 159.546434336074 315.008282106193  C 160.57735080354 313.283589894495  161.584199282417 311.544624798247  162.566686910123 309.791892631204  L 160.822081376162 308.813960358052  C 159.84867284916 310.550495647492  158.851128587938 312.273391086697  157.82973874876 313.982145536094  L 159.546434336074 315.008282106193  Z M 155.295705641101 321.828797232348  C 156.389943613931 320.143568687966  157.460660097666 318.443183532525  158.5075436524 316.72813635801  L 156.800448382556 315.686106732866  C 155.763239006866 317.385305274206  154.702416940634 319.069977287188  153.618290745774 320.739632750309  L 155.295705641101 321.828797232348  Z M 150.794683834534 328.486794207503  C 151.950734497955 326.843353045924  153.083842604917 325.183892445804  154.193678567616 323.508895095397  L 152.526447428802 322.404204944373  C 151.426867384025 324.063723759282  150.304230251275 325.707849397943  149.158862572651 327.336103632599  L 150.794683834534 328.486794207503  Z M 148.401333095673 331.821527160669  C 148.813970922516 331.257945459892  149.223878002541 330.692369459344  149.631039926186 330.124819040856  L 148.005971817757 328.958991590945  C 146.845537284701 330.576542414382  145.662633059029 332.177854638908  144.457603212763 333.76246248993  L 148.401333095673 331.821527160669  Z M 179.908604741363 212.929087243398  L 170 210  L 166.267757022931 219.634851444632  L 179.908604741363 212.929087243398  Z M 142.206052483899 325.824453218157  L 144 336  L 154.288433475357 335.047037973921  L 142.206052483899 325.824453218157  Z " fill-rule="nonzero" fill="#c9be78" stroke="none" />
  </g>
</svg>