<?xml version="1.0" encoding="utf-8"?>
<svg version="1.1" xmlns:xlink="http://www.w3.org/1999/xlink" width="114px" height="20px" viewBox="74 134  114 20" xmlns="http://www.w3.org/2000/svg">
  <g transform="matrix(0.984807753012208 0.17364817766693 -0.17364817766693 0.984807753012208 26.9955219394387 -20.5602277081258 )">
    <path d="M 91.6272667705564 152.079419055561  C 89.8540396740861 153.026717786222  88.0956406838617 154.00151531294  86.3527066827899 155.003458569156  L 87.3494666556638 156.737375971017  C 89.0744372451523 155.745759163814  90.8147134351055 154.781008310791  92.569664906598 153.843472839658  L 91.6272667705564 152.079419055561  Z M 98.7965004788133 148.438323085482  C 96.9855515707684 149.311348442047  95.1882788364972 150.212463276899  93.40533323879 151.141341210952  L 94.3294058732514 152.915063220242  C 96.0939756830185 151.995758693229  97.8727249678409 151.103931127234  99.66500947404 150.239903537532  L 98.7965004788133 148.438323085482  Z M 106.110420559346 145.097355428872  C 104.264859173777 145.894608458249  102.43179854802 146.720493419513  100.611902607052 147.574711181447  L 101.461701303668 149.385192381358  C 103.262840630902 148.539778547299  105.077008962134 147.722405504142  106.903549215093 146.933369300125  L 106.110420559346 145.097355428872  Z M 113.584196982988 142.094646517487  C 111.692563549387 142.789976021732  109.817129724375 143.528607718022  107.959375494538 144.309958719887  L 108.7347634149 146.153535019626  C 110.564323471002 145.38404217722  112.411294808215 144.656620311617  114.274219900954 143.971843463116  L 113.584196982988 142.094646517487  Z M 121.230717802273 139.546525095368  C 119.300115448272 140.124914857827  117.383035256684 140.747516137767  115.480990079058 141.413837613378  L 116.142226350635 143.301366843126  C 118.015405173751 142.645157783433  119.903390832208 142.032005400647  121.804693434224 141.462393560041  L 121.230717802273 139.546525095368  Z M 129.018708937507 137.470616258465  C 127.056359302735 137.929902745864  125.104803803003 138.434144697926  123.165582495822 138.982944195348  L 123.710193688468 140.907365835437  C 125.619984438277 140.366895183741  127.541922190981 139.870305850617  129.474490261731 139.417989716353  L 129.018708937507 137.470616258465  Z M 136.925441504655 135.879461594813  C 136.292411731565 135.983732120872  135.660413172791 136.094169451599  135.02953586252 136.21075785415  C 133.676985599924 136.46150016934  132.328444244723 136.733404710873  130.984407645135 137.026371501556  L 131.410356578193 138.980487032027  C 132.733812153573 138.692006396418  134.061702900978 138.424262612838  135.393540700442 138.177354101347  C 136.011456876568 138.063164670301  136.630470906955 137.954998145533  137.250494659651 137.852869927224  L 136.925441504655 135.879461594813  Z M 144.944654126562 134.893563039127  C 142.93072575247 135.057871357105  140.922315170572 135.283957098058  138.922259351836 135.571500905629  L 139.206868851839 137.551146690235  C 141.166415433533 137.269426810252  143.134147560572 137.047920221934  145.107285722148 136.886939813376  L 144.944654126562 134.893563039127  Z M 153.017623804242 134.566565148116  C 150.997004114368 134.565677326036  148.976833212336 134.62681123087  146.959964681096 134.749880508208  L 147.081778069409 136.746167436089  C 149.057796838034 136.625590810447  151.037051091058 136.565695114975  153.016745042148 136.56656495506  L 153.017623804242 134.566565148116  Z M 161.093028397025 134.901851284213  C 160.968385327719 134.891218699737  160.84371994806 134.880849293996  160.719033091672 134.870743136327  C 158.828440454615 134.722002434306  156.933955244324 134.62775653544  155.037934813057 134.588122712106  L 154.996136564224 136.587685891001  C 156.852966745209 136.626500493493  158.708294239223 136.718775665596  160.559812376653 136.864396684528  C 160.680908333574 136.874215105293  160.801983560468 136.884287546816  160.923037258135 136.89461394261  L 161.093028397025 134.901851284213  Z M 169.11237535759 135.955323446299  C 167.120718639518 135.600842442586  165.117539350424 135.314466760147  163.106338330038 135.096696881074  L 162.891039709376 137.08507473851  C 164.856980706912 137.297943929087  166.81508049402 137.577875019564  168.761917013785 137.924378790685  L 169.11237535759 135.955323446299  Z M 177.00273576317 137.733508459242  C 175.051554598583 137.199424825723  173.082706814442 136.732116898731  171.099633251305 136.332401365102  L 170.704453700239 138.292970956425  C 172.642900220196 138.683691300611  174.567441097771 139.14048294045  176.474712925003 139.662547567807  L 177.00273576317 137.733508459242  Z M 184.698756818434 140.221678306167  C 182.804212084243 139.512415650459  180.886003007724 138.86804600925  178.94748193112 138.289695509819  L 178.375694568619 140.206218197419  C 180.270591210207 140.771553510126  182.145632952504 141.401422271319  183.997542894305 142.094723696062  L 184.698756818434 140.221678306167  Z M 192.138322161418 143.377516173268  C 190.311859926001 142.513883985077  188.459649379088 141.705790917339  186.584240007333 140.954349274751  L 185.840368247694 142.810866122294  C 187.678276618875 143.547281811672  189.493450052811 144.339216114795  191.283390042807 145.185578968795  L 192.138322161418 143.377516173268  Z M 199.296204048313 147.122969615884  C 197.545398681773 146.11475068015  195.764446731906 145.159811693358  193.955799601035 144.259467087181  L 193.06452489849 146.049894244203  C 194.837006017762 146.932235408518  196.582345753516 147.868079275048  198.298141722085 148.856137695721  L 199.296204048313 147.122969615884  Z M 206.128462164981 151.43387945312  C 204.464735691633 150.287651257792  202.766661035485 149.192096248508  201.036575521889 148.148722408731  L 200.003712435565 149.861379363556  C 201.699202868845 150.883889724908  203.36332253916 151.957537832345  204.993780858699 153.080845856292  L 206.128462164981 151.43387945312  Z M 212.606298010676 156.236602709625  C 211.025173858974 154.98740495653  209.416195659232 153.773872267325  207.780580273246 152.596922430434  L 206.61242401612 154.220317317372  C 208.223734852162 155.37977817957  209.808804319238 156.575278288439  211.366433637594 157.805913493492  L 212.606298010676 156.236602709625  Z M 218.777188753323 161.419499058835  C 217.273659993957 160.077914220227  215.740192651273 158.770263523767  214.177946478609 157.497535938845  L 212.914728076818 159.048109790481  C 214.453759934889 160.301925184057  215.964440604166 161.590144746562  217.445627564762 162.91179420428  L 218.777188753323 161.419499058835  Z M 224.626835332259 166.962417245665  C 223.206292008525 165.533254807442  221.753832893888 164.136173938155  220.270556475579 162.772231242761  L 218.916804476942 164.244425362497  C 220.378040037666 165.588100448744  221.80891622676 166.964421289693  223.208350880049 168.372346981091  L 224.626835332259 166.962417245665  Z M 230.134756508386 172.838239140279  C 229.74267452041 172.397968886335  229.348636575713 171.95944440958  228.952654363002 171.522678718367  C 227.997192117969 170.467127396042  227.025041195562 169.42680318876  226.036568692132 168.402098935958  L 224.59713620095 169.790635612941  C 225.571103948772 170.800303448741  226.52898657447 171.825364921891  227.470422233247 172.865432810459  C 227.862601575811 173.29800045147  228.252854462869 173.732310777152  228.641169307525 174.168350892511  L 230.134756508386 172.838239140279  Z M 235.359261715444 178.949237946089  C 234.084174939027 177.39526109658  232.785598831153 175.860707443929  231.463981174183 174.34610614161  L 229.957025295302 175.661052520406  C 231.265350781749 177.160420719052  232.550866459496 178.679540597252  233.813129049755 180.217888323493  L 235.359261715444 178.949237946089  Z M 240.3324761284 185.266428735194  C 239.121246843474 183.662180015219  237.885762294696 182.076389124043  236.62644850884 180.509602883054  L 235.067571111076 181.762559888997  C 236.314219347638 183.313588176256  237.537278009689 184.883429974418  238.736325355222 186.471543961753  L 240.3324761284 185.266428735194  Z M 245.046270373733 191.779485227797  C 243.900878493984 190.127586993036  242.730505066409 188.493151047264  241.535553665796 186.876740985932  L 239.927302939433 188.065660495886  C 241.110236115485 189.665813511879  242.268838511481 191.283811116966  243.402710611587 192.919095384059  L 245.046270373733 191.779485227797  Z M 249.493959354292 198.472776784257  C 249.220867276435 198.046227259358  248.946700969238 197.620366448352  248.671463043143 197.195198406023  C 247.856289481554 195.933143776985  247.026839226741 194.680368037117  246.183272066551 193.437112524989  L 244.528276909072 194.560051093533  C 245.363551463463 195.791084901975  246.184844674551 197.0315475039  246.991998253311 198.281199823162  C 247.265597840689 198.703833904746  247.538131471976 199.127157098662  247.809596548784 199.551165368868  L 249.493959354292 198.472776784257  Z M 253.731392286547 205.289444552682  C 252.694769006055 203.571264811748  251.641020774718 201.863475386689  250.570305076644 200.166331508961  L 248.878803402016 201.233487582238  C 249.94241757214 202.919375143555  250.989176812345 204.615837645548  252.01892468304 206.322621549589  L 253.731392286547 205.289444552682  Z M 257.785897473217 212.216477468131  C 256.795371028132 210.471316498642  255.787449158814 208.73608638114  254.762282500538 207.011046448095  L 253.042977511829 208.032804910649  C 254.061344746416 209.746403506531  255.062581568215 211.47012470043  256.046538341023 213.203710879868  L 257.785897473217 212.216477468131  Z M 261.65460233049 219.248967784354  C 260.710874500715 217.478062018616  259.749493097815 215.716620605016  258.77060180155 213.96490679337  L 257.024711612303 214.940543737673  C 257.997110406484 216.680639297511  258.952115441766 218.430397940927  259.889583991348 220.189558164112  L 261.65460233049 219.248967784354  Z M 265.334765912567 226.381933039393  C 264.438505321557 224.586537149668  263.524345515961 222.800132406848  262.59242311819 221.02298579152  L 260.821184677345 221.951809986766  C 261.746926094515 223.717169667066  262.655022730012 225.491726070289  263.545338867558 227.27521398657  L 265.334765912567 226.381933039393  Z M 266.899903915855 229.563911772425  C 266.676126495804 229.102128665591  266.451170698085 228.640917522666  266.225038721265 228.180282851217  L 264.429706936794 229.061636233048  C 264.654339091976 229.519215742389  264.877802869121 229.977367899854  265.100096084145 230.436088227575  L 266.899903915855 229.563911772425  Z M 81.9181613775745 149.847135530818  L 80 160  L 89.9612372223064 162.744768296403  L 81.9181613775745 149.847135530818  Z " fill-rule="nonzero" fill="#c9be78" stroke="none" />
  </g>
</svg>